<?xml version="1.0" standalone="no"?>
<!DOCTYPE svg PUBLIC "-//W3C//DTD SVG 20010904//EN"
 "http://www.w3.org/TR/2001/REC-SVG-20010904/DTD/svg10.dtd">
<svg version="1.0" xmlns="http://www.w3.org/2000/svg"
 width="761.000000pt" height="775.000000pt" viewBox="0 0 761.000000 775.000000"
 preserveAspectRatio="xMidYMid meet">
<metadata>
Created by potrace 1.16, written by Peter Selinger 2001-2019
</metadata>
<g transform="translate(0.000000,775.000000) scale(0.100000,-0.100000)"
fill="#000000" stroke="none">
<path d="M3148 7475 c-322 -44 -627 -143 -928 -302 -1056 -555 -1831 -1856
-2006 -3367 -34 -295 -33 -662 1 -897 34 -233 119 -516 226 -751 314 -689 980
-1273 1864 -1633 483 -197 994 -317 1630 -382 236 -24 723 -24 924 0 698 83
1280 354 1731 806 477 479 728 1045 799 1811 59 625 -35 1321 -266 1975 -308
873 -797 1538 -1503 2045 -498 357 -1206 635 -1777 695 -171 18 -560 18 -695
0z m752 -64 c245 -32 486 -94 760 -196 442 -164 790 -362 1145 -649 153 -124
440 -415 569 -576 482 -604 810 -1390 930 -2230 39 -267 49 -454 43 -725 -20
-776 -220 -1371 -630 -1867 -434 -527 -1071 -866 -1808 -964 -167 -22 -630
-30 -842 -15 -1096 80 -2020 403 -2737 957 -141 109 -421 386 -520 514 -303
393 -490 845 -552 1330 -16 131 -16 550 0 715 90 889 380 1704 839 2363 439
630 979 1047 1619 1251 191 62 326 87 599 115 86 9 448 -6 585 -23z"/>
<path d="M3305 7303 c-508 -44 -1014 -250 -1435 -582 -123 -98 -372 -346 -483
-482 -314 -383 -593 -892 -756 -1376 -109 -324 -192 -697 -236 -1053 -21 -169
-30 -592 -16 -752 35 -401 177 -818 388 -1138 569 -861 1667 -1438 3028 -1589
742 -83 1309 -31 1794 164 650 261 1154 756 1401 1375 121 303 189 643 212
1062 34 606 -80 1270 -324 1898 -370 949 -1033 1681 -1913 2110 -418 204 -837
326 -1230 360 -112 9 -340 11 -430 3z"/>
</g>
</svg>
